<?xml version="1.0" standalone="no"?>
<!DOCTYPE svg PUBLIC "-//W3C//DTD SVG 20010904//EN"
 "http://www.w3.org/TR/2001/REC-SVG-20010904/DTD/svg10.dtd">
<svg version="1.0" xmlns="http://www.w3.org/2000/svg"
 width="475.000000pt" height="475.000000pt" viewBox="0 0 475.000000 475.000000"
 preserveAspectRatio="xMidYMid meet">
<metadata>
Created by potrace 1.14, written by Peter Selinger 2001-2017
</metadata>
<g transform="translate(0.000000,475.000000) scale(0.100000,-0.100000)"
fill="#000000" stroke="none">
<path d="M0 2375 l0 -2375 2375 0 2375 0 0 2375 0 2375 -2375 0 -2375 0 0
-2375z m2940 546 c0 -14 -10 -20 -45 -24 -25 -4 -65 -4 -90 0 -35 4 -45 10
-45 24 0 17 9 19 90 19 81 0 90 -2 90 -19z m-52 -68 c-21 -2 -55 -2 -75 0 -21
2 -4 4 37 4 41 0 58 -2 38 -4z m-358 -22 c0 -14 -83 -21 -240 -21 -157 0 -240
7 -240 21 0 5 108 9 240 9 132 0 240 -4 240 -9z m368 -18 c-27 -2 -69 -2 -95
0 -27 2 -5 3 47 3 52 0 74 -1 48 -3z m-10 -40 c-21 -2 -55 -2 -75 0 -21 2 -4
4 37 4 41 0 58 -2 38 -4z m36 -39 c23 -9 20 -23 -4 -17 -15 4 -20 0 -20 -16 0
-14 6 -21 20 -21 19 0 20 -7 20 -100 l0 -100 -90 0 -90 0 0 110 c0 61 3 109 8
108 4 -2 8 2 9 7 0 6 -3 9 -8 8 -14 -4 -11 15 4 20 18 8 133 8 151 1z m-26
-271 c-27 -2 -69 -2 -95 0 -27 2 -5 3 47 3 52 0 74 -1 48 -3z m-10 -20 c-21
-2 -55 -2 -75 0 -21 2 -4 4 37 4 41 0 58 -2 38 -4z m-358 -22 c0 -11 -112 -25
-156 -19 -23 2 -29 -1 -29 -17 0 -18 8 -20 88 -23 64 -2 87 -6 87 -16 0 -19
-67 -26 -240 -26 -173 0 -240 7 -240 26 0 10 25 14 98 16 89 3 97 5 97 23 0
16 -6 19 -29 17 -44 -6 -156 8 -156 19 0 5 101 9 240 9 139 0 240 -4 240 -9z
m358 2 c-21 -2 -55 -2 -75 0 -21 2 -4 4 37 4 41 0 58 -2 38 -4z m15 -20 c-16
-3 -23 -11 -23 -29 0 -19 -5 -24 -25 -24 -20 0 -25 5 -25 24 0 19 -6 26 -27
29 -16 2 6 4 47 4 41 0 65 -2 53 -4z m37 -73 c0 -6 -37 -10 -90 -10 -53 0 -90
4 -90 10 0 6 37 10 90 10 53 0 90 -4 90 -10z m-743 -299 c22 -51 13 -176 -13
-196 -35 -26 -124 -15 -146 19 -12 18 -9 153 4 181 13 29 53 43 105 37 29 -4
38 -11 50 -41z m210 23 c15 -20 17 -122 4 -143 -5 -8 -26 -17 -47 -20 -35 -6
-39 -10 -42 -39 -3 -26 -7 -32 -28 -32 l-24 0 0 123 c0 68 3 127 8 131 13 15
116 -2 129 -20z m123 -78 l0 -105 43 -3 c35 -2 43 -7 45 -25 3 -22 0 -23 -67
-23 l-71 0 0 130 0 130 25 0 25 0 0 -104z m275 74 c0 -22 -5 -25 -42 -28 -38
-3 -43 -6 -43 -28 0 -21 5 -24 36 -24 31 0 35 -3 32 -22 -2 -18 -11 -24 -35
-26 -27 -3 -33 -8 -33 -27 0 -21 5 -24 43 -27 35 -2 43 -7 45 -25 3 -22 0 -23
-67 -23 l-71 0 0 130 0 131 68 -3 c64 -3 67 -4 67 -28z m-1645 0 c15 -15 20
-33 20 -70 0 -37 -5 -55 -20 -70 -21 -21 -80 -28 -80 -10 0 6 13 10 29 10 41
0 53 20 49 81 -3 53 -3 54 -43 65 l-40 12 33 1 c19 1 40 -7 52 -19z m122 -82
l3 -103 43 -3 c34 -3 42 -7 42 -23 0 -17 -7 -19 -65 -19 l-65 0 0 125 c0 118
1 125 20 125 18 0 20 -8 22 -102z m278 82 c0 -17 -7 -20 -40 -20 -38 0 -40 -2
-40 -30 0 -27 3 -30 30 -30 23 0 30 -4 30 -20 0 -16 -7 -20 -30 -20 -27 0 -30
-3 -30 -30 0 -28 2 -30 40 -30 36 0 40 -2 40 -25 0 -24 -2 -25 -65 -25 l-65 0
0 125 0 125 65 0 c58 0 65 -2 65 -20z m200 0 c32 -32 24 -127 -14 -152 -6 -4
-23 -8 -38 -8 -25 0 -28 -4 -28 -35 0 -31 -3 -35 -25 -35 l-25 0 0 125 0 125
55 0 c42 0 60 -5 75 -20z m210 1 c0 -16 -8 -20 -42 -23 -38 -3 -43 -6 -43 -28
0 -21 5 -26 33 -28 23 -2 32 -8 32 -22 0 -14 -9 -20 -32 -22 -27 -2 -34 -8
-36 -30 -3 -25 0 -27 40 -30 36 -2 44 -7 46 -25 3 -22 0 -23 -67 -23 l-71 0 0
125 0 125 70 0 c63 0 70 -2 70 -19z m983 -58 l24 -78 25 75 c22 66 28 75 51
78 l27 3 0 -125 c0 -118 -1 -126 -20 -126 -17 0 -19 8 -22 68 l-3 67 -21 -65
c-16 -48 -26 -65 -40 -65 -14 0 -22 15 -35 65 l-17 65 -1 -67 c-1 -66 -2 -68
-26 -68 l-25 0 0 125 0 125 30 0 c28 0 30 -4 53 -77z m337 57 c0 -17 -7 -20
-40 -20 -38 0 -40 -2 -40 -30 0 -27 3 -30 30 -30 23 0 30 -4 30 -20 0 -16 -7
-20 -30 -20 -27 0 -30 -3 -30 -30 0 -28 2 -30 40 -30 36 0 40 -2 40 -25 0 -24
-2 -25 -65 -25 l-65 0 0 125 0 125 65 0 c58 0 65 -2 65 -20z m200 0 c0 -17 -7
-20 -40 -20 -38 0 -40 -2 -40 -30 0 -28 3 -30 35 -30 28 0 35 -4 35 -20 0 -16
-7 -20 -35 -20 -32 0 -35 -2 -35 -30 0 -28 2 -30 40 -30 36 0 40 -2 40 -25 0
-24 -2 -25 -65 -25 l-65 0 0 125 0 125 65 0 c58 0 65 -2 65 -20z m220 0 c0
-16 -7 -20 -30 -20 l-30 0 0 -105 0 -105 -25 0 -25 0 0 105 0 105 -30 0 c-23
0 -30 4 -30 20 0 18 7 20 85 20 78 0 85 -2 85 -20z m190 0 c0 -17 -7 -20 -45
-20 -43 0 -45 -1 -45 -30 0 -28 3 -30 35 -30 28 0 35 -4 35 -20 0 -16 -7 -20
-35 -20 -33 0 -35 -2 -35 -35 0 -35 0 -35 45 -35 38 0 45 -3 45 -20 0 -18 -7
-20 -65 -20 l-65 0 0 125 0 125 65 0 c58 0 65 -2 65 -20z m-2755 -70 l0 -55
-35 -2 c-34 -2 -34 -2 -8 8 27 10 43 45 32 73 -3 8 -18 19 -32 25 -26 10 -26
10 8 8 l35 -2 0 -55z"/>
<path d="M2800 2710 c0 -5 5 -10 11 -10 5 0 7 5 4 10 -3 6 -8 10 -11 10 -2 0
-4 -4 -4 -10z"/>
<path d="M2118 2053 c7 -3 16 -2 19 1 4 3 -2 6 -13 5 -11 0 -14 -3 -6 -6z"/>
<path d="M2098 2019 c-14 -8 -18 -23 -18 -64 0 -69 7 -85 36 -85 31 0 42 28
38 92 -4 69 -16 81 -56 57z"/>
<path d="M2093 1843 c9 -2 25 -2 35 0 9 3 1 5 -18 5 -19 0 -27 -2 -17 -5z"/>
<path d="M2320 1980 c0 -37 2 -41 23 -38 18 2 22 9 22 38 0 29 -4 36 -22 38
-21 3 -23 -1 -23 -38z"/>
<path d="M1262 1948 l-2 -108 53 2 52 2 -47 3 -47 4 -4 102 -3 102 -2 -107z"/>
<path d="M1452 1953 l-2 -113 48 2 47 1 -42 4 -42 4 -4 107 -3 107 -2 -112z"/>
<path d="M1654 1950 c-1 -58 1 -91 3 -73 4 28 8 32 41 36 l37 4 -37 1 -37 2
-4 68 c-2 42 -3 28 -3 -38z"/>
<path d="M1710 2046 c0 -2 9 -6 20 -9 11 -3 18 -1 14 4 -5 9 -34 13 -34 5z"/>
<path d="M1680 1980 c0 -37 2 -41 23 -38 18 2 22 9 22 38 0 29 -4 36 -22 38
-21 3 -23 -1 -23 -38z"/>
<path d="M1752 1983 c-1 -17 -5 -40 -8 -50 -5 -17 -5 -17 6 0 6 9 9 32 7 50
l-4 32 -1 -32z"/>
<path d="M1854 1945 l1 -100 43 -1 42 -1 -40 4 -39 4 -4 97 -3 97 0 -100z"/>
<path d="M2894 1945 c0 -60 1 -84 3 -52 2 32 2 81 0 110 -2 29 -3 3 -3 -58z"/>
<path d="M3035 2038 c-3 -7 -16 -44 -29 -83 -13 -38 -27 -79 -31 -90 -6 -14
-5 -17 2 -10 6 6 23 48 38 95 16 47 33 88 39 92 8 5 7 8 -2 8 -7 0 -15 -6 -17
-12z"/>
<path d="M3182 1948 l-2 -108 48 2 47 1 -42 4 -42 4 -4 102 -3 102 -2 -107z"/>
<path d="M3382 1948 l-2 -108 48 2 47 1 -42 4 -42 4 -4 102 -3 102 -2 -107z"/>
<path d="M3590 2050 c0 -5 7 -10 15 -10 11 0 15 -21 18 -102 l3 -103 2 103 c2
102 2 102 27 102 14 0 25 5 25 10 0 6 -20 10 -45 10 -25 0 -45 -4 -45 -10z"/>
<path d="M3787 2053 c-4 -3 -7 -53 -7 -110 l0 -103 53 2 52 2 -47 3 -48 4 0
45 c0 44 0 44 35 44 19 0 35 5 35 10 0 6 -16 10 -35 10 -34 0 -35 1 -35 40 l0
40 45 0 c25 0 45 5 45 10 0 11 -83 14 -93 3z"/>
</g>
</svg>
